HIERARCHY
ROOT SimulationBone
{
	OFFSET 0.000000 0.000000 0.000000
	CHANNELS 6 Xposition Yposition Zposition Zrotation Yrotation Xrotation 
	JOINT Hips
	{
		OFFSET 0.000000 0.000000 0.000000
		CHANNELS 6 Xposition Yposition Zposition Zrotation Yrotation Xrotation 
		JOINT LeftUpLeg
		{
			OFFSET 0.103459 1.857839 10.548500
			CHANNELS 3 Zrotation Yrotation Xrotation
			JOINT LeftLeg
			{
				OFFSET 43.500004 -0.000053 -0.000011
				CHANNELS 3 Zrotation Yrotation Xrotation
				JOINT LeftFoot
				{
					OFFSET 42.372192 0.000015 -0.000008
					CHANNELS 3 Zrotation Yrotation Xrotation
					JOINT LeftToe
					{
						OFFSET 17.300007 0.000002 0.000013
						CHANNELS 3 Zrotation Yrotation Xrotation
						End Site
						{
							OFFSET 0.000000 0.000000 0.000000
						}
					}
				}
			}
		}
		JOINT RightUpLeg
		{
			OFFSET 0.103460 1.857826 -10.548500
			CHANNELS 3 Zrotation Yrotation Xrotation
			JOINT RightLeg
			{
				OFFSET 43.500046 -0.000019 0.000011
				CHANNELS 3 Zrotation Yrotation Xrotation
				JOINT RightFoot
				{
					OFFSET 42.372261 0.000004 0.000012
					CHANNELS 3 Zrotation Yrotation Xrotation
					JOINT RightToe
					{
						OFFSET 17.299995 -0.000004 0.000006
						CHANNELS 3 Zrotation Yrotation Xrotation
						End Site
						{
							OFFSET 0.000000 0.000000 0.000000
						}
					}
				}
			}
		}
		JOINT Spine
		{
			OFFSET 6.901963 -2.603745 -0.000005
			CHANNELS 3 Zrotation Yrotation Xrotation
			JOINT Spine1
			{
				OFFSET 12.588102 0.000012 0.000012
				CHANNELS 3 Zrotation Yrotation Xrotation
				JOINT Spine2
				{
					OFFSET 12.343202 0.000010 -0.000009
					CHANNELS 3 Zrotation Yrotation Xrotation
					JOINT Neck
					{
						OFFSET 25.832901 -0.000008 0.000006
						CHANNELS 3 Zrotation Yrotation Xrotation
						JOINT Head
						{
							OFFSET 11.766603 0.000007 -0.000001
							CHANNELS 3 Zrotation Yrotation Xrotation
							End Site
							{
								OFFSET 0.000000 0.000000 0.000000
							}
						}
					}
					JOINT LeftShoulder
					{
						OFFSET 19.745903 -1.480391 6.000108
						CHANNELS 3 Zrotation Yrotation Xrotation
						JOINT LeftArm
						{
							OFFSET 11.284125 -0.000031 -0.000021
							CHANNELS 3 Zrotation Yrotation Xrotation
							JOINT LeftForeArm
							{
								OFFSET 33.000046 0.000024 0.000034
								CHANNELS 3 Zrotation Yrotation Xrotation
								JOINT LeftHand
								{
									OFFSET 25.200014 0.000020 0.000007
									CHANNELS 3 Zrotation Yrotation Xrotation
									End Site
									{
										OFFSET 0.000000 0.000000 0.000000
									}
								}
							}
						}
					}
					JOINT RightShoulder
					{
						OFFSET 19.746098 -1.480371 -6.000075
						CHANNELS 3 Zrotation Yrotation Xrotation
						JOINT RightArm
						{
							OFFSET 11.284128 -0.000021 -0.000009
							CHANNELS 3 Zrotation Yrotation Xrotation
							JOINT RightForeArm
							{
								OFFSET 33.000095 0.000034 0.000006
								CHANNELS 3 Zrotation Yrotation Xrotation
								JOINT RightHand
								{
									OFFSET 25.199781 0.000147 0.000427
									CHANNELS 3 Zrotation Yrotation Xrotation
									End Site
									{
										OFFSET 0.000000 0.000000 0.000000
									}
								}
							}
						}
					}
				}
			}
		}
	}
}
MOTION
Frames: 11
Frame Time: 0.033333
-291.634722 0.000000 -379.977202 0.000000 -86.763876 0.000000 -1.506758 88.493141 1.783278 90.051782 1.668529 -172.712423 164.652980 -13.334195 173.023295 -77.213130 3.671866 -2.937693 69.800565 0.128734 -5.418539 21.454555 0.003091 0.000003 158.425582 -6.649696 -165.522777 -31.520141 -3.340421 4.773068 86.318360 -3.999006 -3.902997 21.454560 -0.003106 -0.000018 6.936032 0.357677 -0.099820 3.858702 0.718373 -0.187799 3.540576 0.717371 -0.192127 2.193938 9.826666 0.612701 -29.694910 -8.428994 6.883951 -165.765030 -82.657966 -15.968977 -31.390696 60.467036 17.511266 -37.959497 -15.153041 1.415675 10.004630 -6.116484 -5.734663 179.930911 74.793932 1.319948 14.508601 -56.955530 -43.551281 -38.982926 13.956097 -1.391172 9.845749 -0.642065 -2.650567 
-291.303584 0.000000 -375.730830 0.000000 -87.382266 0.000000 -1.935502 89.593483 1.537632 89.741922 0.909124 -175.373512 159.715818 -10.820907 172.189629 -78.878440 3.487941 -4.023509 69.709628 1.290966 -4.323712 21.454545 0.003087 -0.000001 162.446323 -7.281696 -168.391757 -28.268942 -3.578291 4.104182 86.673250 -3.405427 -3.306745 21.454560 -0.003107 -0.000016 6.822960 0.117757 0.365007 3.633773 0.224115 0.733475 3.315719 0.228673 0.732112 3.334354 9.153759 1.370821 -28.621378 -7.769410 7.015789 -160.322025 -82.043816 -21.484963 -24.824985 61.310257 25.361192 -35.009460 -12.772668 1.190927 10.821052 -0.208002 -0.149718 176.719001 75.202903 -1.958982 10.071988 -56.572483 -40.219968 -41.797107 14.877916 -1.526098 9.303397 1.536105 -2.712380 
-290.964342 0.000000 -371.486032 0.000000 -87.944611 0.000000 -2.246405 90.462479 1.260314 89.450860 0.649013 -178.116723 155.139974 -9.090510 171.514697 -78.146988 3.179640 -4.330202 70.426210 1.308340 -5.035847 21.454543 0.003090 -0.000002 166.661738 -7.667999 -170.879981 -24.748576 -3.422914 3.127464 86.959120 -2.629936 -2.789910 21.454553 -0.003103 -0.000017 6.665030 0.015655 0.759384 3.317299 0.009813 1.518898 2.999318 0.019123 1.518822 3.919586 8.549550 2.276935 -26.095757 -7.397500 7.398079 -155.873031 -81.608521 -25.999047 -15.504041 62.444779 33.902505 -33.772953 -10.585234 1.020884 12.187927 4.486324 6.402394 173.797141 76.361501 -4.915995 5.540188 -56.764756 -36.759921 -44.638097 15.837588 -1.669913 8.547495 3.361023 -3.574552 
-290.622726 0.000000 -367.242271 0.000000 -88.446935 0.000000 -2.569296 90.873306 0.919367 88.607441 0.661638 179.262813 150.623525 -7.828513 171.579557 -74.847761 2.311575 -4.052621 72.357528 1.049358 -5.572637 21.454553 0.003089 0.000001 169.652910 -7.574591 -172.383046 -22.509116 -3.116506 1.807865 87.914835 -1.615604 -2.291166 21.454557 -0.003109 -0.000019 6.369121 -0.003815 1.122212 2.725066 -0.033537 2.244033 2.407246 -0.019859 2.244198 4.778199 8.330674 3.165154 -24.331726 -7.430490 8.084104 -153.870010 -80.949066 -28.043951 -3.684217 62.899950 45.303907 -33.721829 -10.366908 1.005481 14.445375 8.594220 9.997267 172.280990 76.882713 -6.447036 1.872018 -55.970627 -32.701228 -48.903376 16.411276 -1.838886 7.688728 4.074903 -4.980314 
-290.286393 0.000000 -363.000508 0.000000 -88.875389 0.000000 -2.855030 90.842453 0.611488 87.539026 0.642141 176.463443 146.474172 -7.065102 171.833694 -69.181552 1.111846 -3.562979 72.844678 1.018125 -4.771513 21.454553 0.003083 0.000002 171.520612 -7.152498 -172.801423 -22.009043 -3.090185 0.046159 89.717479 -0.311919 -1.898644 21.454555 -0.003110 -0.000017 6.128767 0.004058 1.501911 2.244443 -0.020274 3.003624 1.926819 -0.002005 3.003691 3.629923 8.278130 3.827549 -21.801995 -7.974529 8.846190 -148.423002 -80.203708 -33.590949 7.879591 63.135769 55.174784 -34.128106 -10.331814 1.011981 15.343969 9.271813 11.316782 171.868924 77.405100 -6.849956 -1.634396 -54.977419 -27.539089 -54.115524 16.396438 -2.012311 6.999734 3.497584 -6.649820 
-289.951263 0.000000 -358.762250 0.000000 -89.257094 0.000000 -3.021272 90.373734 0.391100 86.397234 1.292258 173.487466 143.399152 -7.254192 171.995501 -61.238909 0.768728 -2.956806 73.814735 0.688486 -4.639559 21.454553 0.003104 -0.000002 172.913752 -7.327190 -173.391018 -22.511383 -3.091195 -1.442770 91.857022 0.768926 -1.652136 21.454558 -0.003111 -0.000016 5.881440 0.177073 1.951560 1.755628 0.325619 3.905504 1.438332 0.349306 3.903477 2.580498 8.276022 4.420184 -19.742728 -8.382055 9.498349 -145.213059 -79.835233 -36.863040 20.642498 62.736428 64.568995 -34.851187 -10.667440 1.049940 15.583613 9.050186 11.918893 171.229031 77.597902 -7.495952 -3.946693 -53.712123 -22.740951 -59.584125 15.920237 -2.178063 5.798708 3.348845 -8.188095 
-289.631056 0.000000 -354.524461 0.000000 -89.596810 0.000000 -3.100597 89.832474 0.223022 85.514572 1.664293 170.579096 142.180838 -7.611497 173.230741 -50.144903 -0.192606 -3.245483 73.376551 0.329174 -6.524998 21.454551 0.003091 -0.000001 174.939969 -7.202808 -175.541012 -22.391008 -2.763106 -2.004080 93.866907 1.192073 -1.446598 21.454557 -0.003115 -0.000018 5.734381 0.329059 2.351615 1.468915 0.629610 4.707082 1.151965 0.658122 4.703223 2.185241 7.557552 5.052078 -19.217721 -8.145699 9.888318 -142.232037 -79.371197 -39.906992 31.810885 61.757778 71.605272 -35.424824 -10.605248 1.058770 14.047816 7.629478 9.353278 170.045906 77.439319 -8.707030 -5.636261 -52.252009 -18.258815 -64.619129 15.011649 -2.309827 4.805114 3.827412 -8.900452 
-289.334330 0.000000 -350.286038 0.000000 -89.910433 0.000000 -3.052368 89.298210 0.074439 84.726652 1.759977 168.442791 142.811510 -7.537282 172.842117 -36.031533 0.117495 -3.511948 73.320612 0.391073 -6.931000 21.454550 0.003084 -0.000001 177.362336 -6.521089 -177.277478 -21.630313 -2.335466 -2.440052 95.504643 1.517086 -1.246255 21.454557 -0.003108 -0.000016 5.616021 0.472063 2.584219 1.240010 0.917981 5.173221 0.923300 0.949299 5.167616 1.743338 6.705190 5.546634 -19.305308 -8.147201 10.256623 -139.360967 -78.867989 -42.844947 40.970029 60.598490 76.624723 -36.006216 -10.845185 1.087828 14.346980 7.998835 9.152490 167.833990 77.533002 -10.957010 -6.546192 -51.716690 -14.511188 -68.464730 14.350011 -2.418756 3.225511 4.193829 -8.537257 
-289.084335 0.000000 -346.028547 180.000000 -89.781865 180.000000 -2.882640 88.736420 0.007317 84.134711 1.996793 167.174738 144.245973 -6.934398 173.030821 -22.149574 0.832760 -5.474336 71.700423 1.752565 -6.782597 21.454555 0.003114 0.000004 -179.995975 -5.962710 -177.909448 -20.871001 -2.393926 -2.952104 96.455091 1.919871 -0.773201 21.454558 -0.003109 -0.000018 5.532987 0.659004 2.667872 1.083441 1.294644 5.341719 0.766753 1.326973 5.333847 1.531064 5.936829 5.826038 -19.957770 -8.338547 10.532764 -135.735981 -78.700260 -46.535062 47.056534 60.132876 80.885463 -35.462482 -10.321110 1.040966 13.932384 8.306837 7.387488 165.826912 77.780903 -12.989991 -6.612172 -51.913481 -11.743485 -71.439926 13.831410 -2.505742 1.490068 5.192568 -7.100267 
-288.894982 0.000000 -341.747785 180.000000 -89.479221 180.000000 -2.627644 88.273911 -0.078992 83.838908 2.152991 166.665200 145.604415 -5.923805 174.625315 -13.168711 1.594820 -7.669175 69.944873 3.482146 -6.016724 21.454555 0.003087 0.000000 -177.451388 -4.945912 -178.285259 -20.804350 -1.959833 -3.327889 96.294876 2.212682 -0.316331 21.454557 -0.003119 -0.000018 5.465262 0.802482 2.668242 0.954755 1.584600 5.343002 0.638033 1.616943 5.333371 1.450127 5.905698 5.913089 -20.068986 -8.838402 10.827873 -133.527002 -78.877722 -48.769040 50.496593 60.013006 82.677486 -35.115567 -9.248509 0.962515 14.689799 9.582429 8.226782 165.896989 77.673615 -12.923949 -5.534833 -52.279559 -9.944758 -73.454402 13.036477 -2.535076 1.301086 5.403416 -5.793488 
-288.757510 0.000000 -337.450499 180.000000 -89.175929 180.000000 -2.445982 87.885178 -0.279247 83.920699 1.482619 166.750245 144.992881 -4.596608 173.403504 -14.983138 1.875713 -6.369291 69.159251 4.015317 -1.574846 21.454551 0.003096 0.000001 -176.236407 -3.093993 -176.689166 -23.368439 -2.347480 -4.383411 95.401869 2.973328 -0.042376 21.454558 -0.003119 -0.000018 5.435240 0.736386 2.576535 0.890483 1.454559 5.158619 0.573688 1.485784 5.149772 1.120977 6.023026 5.901482 -19.100902 -9.286841 10.928672 -134.347062 -78.611092 -47.951066 49.665068 60.138573 82.905731 -34.268203 -8.554387 0.897935 14.151188 11.229492 9.895576 168.260044 77.178617 -10.536980 -4.042269 -52.810401 -9.323347 -73.993973 12.681744 -2.533205 0.319452 6.156867 -4.367593 
